<?xml version="1.0" encoding="utf-8"?>
<!-- Generator: Adobe Illustrator 23.1.0, SVG Export Plug-In . SVG Version: 6.00 Build 0)  -->
<svg version="1.1" id="图层_1" xmlns="http://www.w3.org/2000/svg" xmlns:xlink="http://www.w3.org/1999/xlink" x="0px" y="0px"
	 viewBox="0 0 238.7 72.9" style="enable-background:new 0 0 238.7 72.9;" xml:space="preserve">
<style type="text/css">
	.st0{fill:#0575BB;}
</style>
<g>
	<g>
		<path d="M81.2,26.9c-1.4,0-2.8,0.3-4,0.8c-1.2,0.5-2.2,1.3-3,2.2s-1.4,2.1-1.9,3.5c-0.4,1.4-0.7,2.9-0.7,4.6
			c0,1.7,0.2,3.2,0.6,4.6s1,2.5,1.8,3.5c0.8,1,1.8,1.7,2.9,2.2c1.2,0.5,2.6,0.8,4.2,0.8c1.2,0,2.3-0.1,3.4-0.3
			c1.1-0.2,2.1-0.5,3.2-0.8v3c-1,0.4-2.1,0.7-3.2,0.8s-2.4,0.3-3.9,0.3c-2.1,0-3.9-0.3-5.5-1c-1.6-0.7-2.9-1.6-3.9-2.8
			s-1.8-2.7-2.4-4.5C68.3,42,68,40.1,68,38c0-2.1,0.3-4,0.9-5.7c0.6-1.7,1.4-3.2,2.5-4.4c1.1-1.2,2.5-2.2,4.1-2.9s3.5-1,5.7-1
			c1.4,0,2.8,0.1,4.1,0.4s2.5,0.7,3.5,1.2l-1.4,2.9c-0.8-0.4-1.8-0.7-2.8-1C83.6,27.1,82.4,26.9,81.2,26.9z"/>
		<path d="M90.1,31.1h3.6l4.4,11.7c0.4,1,0.7,2,1,3c0.3,0.9,0.5,1.8,0.7,2.7h0.2c0.2-0.6,0.4-1.5,0.7-2.5s0.7-2.1,1-3.2l4.2-11.7
			h3.7l-8.9,23.5c-0.3,1-0.8,1.8-1.2,2.6s-1,1.5-1.6,2c-0.6,0.6-1.3,1-2,1.3c-0.8,0.3-1.7,0.5-2.7,0.5c-0.6,0-1.2,0-1.6-0.1
			c-0.5-0.1-0.9-0.1-1.2-0.2V58c0.3,0,0.6,0.1,1,0.2s0.8,0.1,1.2,0.1c1.2,0,2.1-0.3,2.9-1c0.7-0.7,1.3-1.5,1.7-2.7l1.1-2.7
			L90.1,31.1z"/>
		<path d="M122.7,30.8c2.6,0,4.6,0.9,6.2,2.7c1.6,1.8,2.3,4.4,2.3,8c0,1.8-0.2,3.3-0.6,4.7c-0.4,1.3-1,2.5-1.7,3.3
			c-0.7,0.9-1.6,1.6-2.7,2c-1.1,0.4-2.2,0.7-3.5,0.7c-1.6,0-2.9-0.3-4-0.9s-1.8-1.3-2.4-2.1H116c-0.1,0.4-0.2,0.9-0.3,1.3
			c-0.1,0.4-0.2,0.9-0.3,1.3h-2.4V22.5h3.4v7.1c0,0.9,0,1.7-0.1,2.5c0,0.8-0.1,1.4-0.1,1.8h0.2c0.6-0.9,1.4-1.6,2.4-2.2
			C119.7,31,121.1,30.8,122.7,30.8z M122.1,33.6c-1.1,0-2,0.2-2.8,0.5s-1.3,0.8-1.8,1.4c-0.4,0.7-0.8,1.5-1,2.4
			c-0.2,1-0.3,2.1-0.3,3.4v0.2c0,1.3,0.1,2.4,0.3,3.4s0.5,1.8,1,2.4c0.4,0.7,1.1,1.2,1.8,1.5c0.8,0.3,1.7,0.5,2.8,0.5
			c1.8,0,3.2-0.7,4.1-2c0.9-1.4,1.4-3.3,1.4-5.9C127.7,36.2,125.8,33.6,122.1,33.6z"/>
		<path d="M145.4,52.1c-1.5,0-2.8-0.2-4-0.7c-1.2-0.4-2.3-1.1-3.1-2s-1.6-2-2-3.3s-0.7-2.8-0.7-4.6c0-1.7,0.2-3.2,0.6-4.6
			c0.4-1.3,1.1-2.5,1.8-3.4c0.8-0.9,1.8-1.6,2.9-2.1c1.1-0.5,2.4-0.8,3.7-0.8c1.3,0,2.5,0.2,3.5,0.7c1.1,0.4,1.9,1.1,2.7,1.9
			c0.7,0.8,1.3,1.8,1.7,2.9c0.4,1.2,0.6,2.4,0.6,3.8v2h-14.1c0.1,2.3,0.6,4.1,1.8,5.3c1.1,1.2,2.7,1.8,4.8,1.8
			c1.3,0,2.5-0.1,3.5-0.4c1-0.2,2.1-0.6,3.1-1.1v3c-1,0.5-2.1,0.8-3.1,1C148,52,146.8,52.1,145.4,52.1z M144.5,33.5
			c-1.6,0-2.9,0.5-3.8,1.6s-1.5,2.5-1.7,4.3h10.5c0-1.8-0.4-3.2-1.2-4.3C147.5,34,146.2,33.5,144.5,33.5z"/>
		<path d="M167.9,30.7c0.4,0,0.8,0,1.2,0.1s0.8,0.1,1.2,0.2l-0.4,3.1c-0.3-0.1-0.7-0.1-1.1-0.2s-0.8-0.1-1.1-0.1
			c-0.8,0-1.6,0.2-2.3,0.5c-0.7,0.3-1.4,0.8-1.9,1.4c-0.6,0.6-1,1.3-1.3,2.2c-0.3,0.9-0.5,1.8-0.5,2.8v11h-3.4V31.1h2.8l0.4,3.8h0.1
			c0.3-0.6,0.7-1.1,1.1-1.6s0.9-0.9,1.4-1.3c0.5-0.4,1.1-0.7,1.7-0.9C166.5,30.8,167.2,30.7,167.9,30.7z"/>
		<path d="M174.4,24.3h8.6c3.9,0,6.7,0.6,8.5,1.7s2.6,2.9,2.6,5.3c0,1.6-0.4,2.9-1.1,4c-0.7,1.1-1.8,1.7-3.1,2v0.2
			c1.7,0.4,2.9,1.1,3.7,2.2c0.8,1.1,1.2,2.5,1.2,4.3c0,2.5-0.9,4.5-2.7,5.9c-1.8,1.4-4.3,2.1-7.4,2.1h-10.3L174.4,24.3L174.4,24.3z
			 M180.2,35.1h3.4c1.7,0,2.9-0.3,3.5-0.8c0.6-0.5,1-1.3,1-2.4c0-1.1-0.4-1.8-1.1-2.3c-0.8-0.4-2-0.7-3.7-0.7h-3.1V35.1z
			 M180.2,39.8v7.2h3.8c1.8,0,3-0.3,3.7-1c0.7-0.7,1-1.6,1-2.7c0-1-0.4-1.8-1.1-2.5s-2-0.9-3.8-0.9H180.2z"/>
		<path d="M214.6,51.7l-0.8-2.7h-0.3c-0.7,1.1-1.6,1.9-2.8,2.3s-2.4,0.7-3.7,0.7c-2.3,0-4.1-0.6-5.4-1.8s-2-3.2-2-5.9V30.7h5.7V43
			c0,1.5,0.3,2.7,0.8,3.4s1.4,1.1,2.6,1.1c1.7,0,2.9-0.6,3.6-1.8c0.6-1.2,1-2.9,1-5.1v-9.9h5.7v21L214.6,51.7L214.6,51.7z"/>
		<path d="M236.7,35h-5v16.7H226V35h-3.2v-2.8l3.2-1.5v-1.5c0-2.4,0.6-4.1,1.8-5.2c1.2-1.1,3.1-1.6,5.7-1.6c2,0,3.7,0.3,5.3,0.9
			l-1.5,4.2c-1.1-0.4-2.2-0.5-3.2-0.5c-0.8,0-1.4,0.2-1.8,0.7s-0.5,1.1-0.5,1.8v1.3h5L236.7,35L236.7,35z"/>
	</g>
	<g>
		<path class="st0" d="M46.9,7.2H7.1H0l0.5,37.2c0,0,2.5,20.9,26.5,28.5c24-7.6,26.5-28.5,26.5-28.5L54,7.2H46.9z M46.4,41.8
			c0,0-2.1,18.5-19.4,24c-17.4-5.5-19-24-19-24l-0.4-27h5.2h28.8h5.2L46.4,41.8z"/>
		<path class="st0" d="M27.8,27.8C27.7,27.8,27.7,27.8,27.8,27.8c0,0-0.4,0.6-1,1.5c0,0,0,0,0,0.1l0,0c-1.8,2.9-5.6,9.1-6.3,11.6
			c-2-3.5-7-9.6-11.1-9.9c-2.3,0.9-1.2,2.6-1.2,2.6s7.3,7.3,10.2,16.9c2.9,3.8,5.8,0,5.8,0s4.6-10.5,7.3-14.6
			c2.3-3.6,22.5-34.4,37-36.2C68.5-0.2,45.7,1,27.8,27.8z"/>
	</g>
</g>
</svg>
